<svg xmlns="http://www.w3.org/2000/svg" xmlns:xlink="http://www.w3.org/1999/xlink" contentStyleType="text/css" data-diagram-type="DESCRIPTION" height="683px" preserveAspectRatio="none" style="width:1266px;height:683px;background:#FFFFFF;" version="1.1" viewBox="0 0 1266 683" width="1266px" zoomAndPan="magnify"><title>Spec Service - Building Block Diagram</title><defs/><g><text fill="#000000" font-family="sans-serif" font-size="14" font-weight="bold" lengthAdjust="spacing" textLength="275.3105" x="488.7579" y="23.5352">Spec Service - Building Block Diagram</text><!--cluster spec-server--><g id="cluster_spec-server"><path d="M8.5,43.4883 L96.6445,43.4883 A3.75,3.75 0 0 1 99.1445,45.9883 L106.1445,65.9766 L865.5,65.9766 A2.5,2.5 0 0 1 868,68.4766 L868,673.8083 A2.5,2.5 0 0 1 865.5,676.3083 L8.5,676.3083 A2.5,2.5 0 0 1 6,673.8083 L6,45.9883 A2.5,2.5 0 0 1 8.5,43.4883 " fill="none" style="stroke:#000000;stroke-width:1.5;"/><line style="stroke:#000000;stroke-width:1.5;" x1="6" x2="106.1445" y1="65.9766" y2="65.9766"/><text fill="#000000" font-family="sans-serif" font-size="14" font-weight="bold" lengthAdjust="spacing" textLength="87.1445" x="10" y="59.0234">spec-server</text></g><!--cluster api--><g id="cluster_api"><path d="M155.5,86.4883 L178.5596,86.4883 A3.75,3.75 0 0 1 181.0596,88.9883 L188.0596,108.9766 L416.5,108.9766 A2.5,2.5 0 0 1 419,111.4766 L419,181.4783 A2.5,2.5 0 0 1 416.5,183.9783 L155.5,183.9783 A2.5,2.5 0 0 1 153,181.4783 L153,88.9883 A2.5,2.5 0 0 1 155.5,86.4883 " fill="none" style="stroke:#000000;stroke-width:1.5;"/><line style="stroke:#000000;stroke-width:1.5;" x1="153" x2="188.0596" y1="108.9766" y2="108.9766"/><text fill="#000000" font-family="sans-serif" font-size="14" font-weight="bold" lengthAdjust="spacing" textLength="22.0596" x="157" y="102.0234">api</text></g><!--cluster application--><g id="cluster_application"><path d="M94.5,207.9783 L175.4326,207.9783 A3.75,3.75 0 0 1 177.9326,210.4783 L184.9326,230.4666 L462.5,230.4666 A2.5,2.5 0 0 1 465,232.9666 L465,409.4583 A2.5,2.5 0 0 1 462.5,411.9583 L94.5,411.9583 A2.5,2.5 0 0 1 92,409.4583 L92,210.4783 A2.5,2.5 0 0 1 94.5,207.9783 " fill="none" style="stroke:#000000;stroke-width:1.5;"/><line style="stroke:#000000;stroke-width:1.5;" x1="92" x2="184.9326" y1="230.4666" y2="230.4666"/><text fill="#000000" font-family="sans-serif" font-size="14" font-weight="bold" lengthAdjust="spacing" textLength="79.9326" x="96" y="223.5134">application</text></g><!--cluster domain--><g id="cluster_domain"><path d="M32.5,435.9583 L87.2715,435.9583 A3.75,3.75 0 0 1 89.7715,438.4583 L96.7715,458.4466 L462.5,458.4466 A2.5,2.5 0 0 1 465,460.9466 L465,649.8083 A2.5,2.5 0 0 1 462.5,652.3083 L32.5,652.3083 A2.5,2.5 0 0 1 30,649.8083 L30,438.4583 A2.5,2.5 0 0 1 32.5,435.9583 " fill="none" style="stroke:#000000;stroke-width:1.5;"/><line style="stroke:#000000;stroke-width:1.5;" x1="30" x2="96.7715" y1="458.4466" y2="458.4466"/><text fill="#000000" font-family="sans-serif" font-size="14" font-weight="bold" lengthAdjust="spacing" textLength="53.7715" x="34" y="451.4934">domain</text></g><!--cluster infrastructure--><g id="cluster_infrastructure"><path d="M491.5,314.4683 L592.6807,314.4683 A3.75,3.75 0 0 1 595.1807,316.9683 L602.1807,336.9566 L841.5,336.9566 A2.5,2.5 0 0 1 844,339.4566 L844,530.9383 A2.5,2.5 0 0 1 841.5,533.4383 L491.5,533.4383 A2.5,2.5 0 0 1 489,530.9383 L489,316.9683 A2.5,2.5 0 0 1 491.5,314.4683 " fill="none" style="stroke:#000000;stroke-width:1.5;"/><line style="stroke:#000000;stroke-width:1.5;" x1="489" x2="602.1807" y1="336.9566" y2="336.9566"/><text fill="#000000" font-family="sans-serif" font-size="14" font-weight="bold" lengthAdjust="spacing" textLength="100.1807" x="493" y="330.0034">infrastructure</text></g><!--entity rest--><g id="elem_rest"><rect fill="#F1F1F1" height="46.4883" rx="2.5" ry="2.5" style="stroke:#181818;stroke-width:0.5;" width="98.6934" x="168.65" y="121.4883"/><rect fill="#F1F1F1" height="10" style="stroke:#181818;stroke-width:0.5;" width="15" x="247.3434" y="126.4883"/><rect fill="#F1F1F1" height="2" style="stroke:#181818;stroke-width:0.5;" width="4" x="245.3434" y="128.4883"/><rect fill="#F1F1F1" height="2" style="stroke:#181818;stroke-width:0.5;" width="4" x="245.3434" y="132.4883"/><text fill="#000000" font-family="sans-serif" font-size="14" lengthAdjust="spacing" textLength="58.6934" x="183.65" y="155.0234">REST API</text></g><!--entity grpc--><g id="elem_grpc"><rect fill="#F1F1F1" height="46.4883" rx="2.5" ry="2.5" style="stroke:#181818;stroke-width:0.5;" width="100.8672" x="302.57" y="121.4883"/><rect fill="#F1F1F1" height="10" style="stroke:#181818;stroke-width:0.5;" width="15" x="383.4372" y="126.4883"/><rect fill="#F1F1F1" height="2" style="stroke:#181818;stroke-width:0.5;" width="4" x="381.4372" y="128.4883"/><rect fill="#F1F1F1" height="2" style="stroke:#181818;stroke-width:0.5;" width="4" x="381.4372" y="132.4883"/><text fill="#000000" font-family="sans-serif" font-size="14" lengthAdjust="spacing" textLength="60.8672" x="317.57" y="155.0234">gRPC API</text></g><!--entity cmd_handler--><g id="elem_cmd_handler"><rect fill="#F1F1F1" height="46.4883" rx="2.5" ry="2.5" style="stroke:#181818;stroke-width:0.5;" width="167.1826" x="108.41" y="242.9783"/><rect fill="#F1F1F1" height="10" style="stroke:#181818;stroke-width:0.5;" width="15" x="255.5926" y="247.9783"/><rect fill="#F1F1F1" height="2" style="stroke:#181818;stroke-width:0.5;" width="4" x="253.5926" y="249.9783"/><rect fill="#F1F1F1" height="2" style="stroke:#181818;stroke-width:0.5;" width="4" x="253.5926" y="253.9783"/><text fill="#000000" font-family="sans-serif" font-size="14" lengthAdjust="spacing" textLength="127.1826" x="123.41" y="276.5134">Command Handler</text></g><!--entity query_handler--><g id="elem_query_handler"><rect fill="#F1F1F1" height="46.4883" rx="2.5" ry="2.5" style="stroke:#181818;stroke-width:0.5;" width="137.9316" x="311.03" y="242.9783"/><rect fill="#F1F1F1" height="10" style="stroke:#181818;stroke-width:0.5;" width="15" x="428.9616" y="247.9783"/><rect fill="#F1F1F1" height="2" style="stroke:#181818;stroke-width:0.5;" width="4" x="426.9616" y="249.9783"/><rect fill="#F1F1F1" height="2" style="stroke:#181818;stroke-width:0.5;" width="4" x="426.9616" y="253.9783"/><text fill="#000000" font-family="sans-serif" font-size="14" lengthAdjust="spacing" textLength="97.9316" x="326.03" y="276.5134">Query Handler</text></g><!--entity event_bus--><g id="elem_event_bus"><rect fill="#F1F1F1" height="46.4883" rx="2.5" ry="2.5" style="stroke:#181818;stroke-width:0.5;" width="104.8662" x="344.57" y="349.4683"/><rect fill="#F1F1F1" height="10" style="stroke:#181818;stroke-width:0.5;" width="15" x="429.4362" y="354.4683"/><rect fill="#F1F1F1" height="2" style="stroke:#181818;stroke-width:0.5;" width="4" x="427.4362" y="356.4683"/><rect fill="#F1F1F1" height="2" style="stroke:#181818;stroke-width:0.5;" width="4" x="427.4362" y="360.4683"/><text fill="#000000" font-family="sans-serif" font-size="14" lengthAdjust="spacing" textLength="64.8662" x="359.57" y="383.0034">Event Bus</text></g><!--entity aggregate--><g id="elem_aggregate"><rect fill="#F1F1F1" height="46.4883" rx="2.5" ry="2.5" style="stroke:#181818;stroke-width:0.5;" width="145.8955" x="191.05" y="470.9583"/><rect fill="#F1F1F1" height="10" style="stroke:#181818;stroke-width:0.5;" width="15" x="316.9455" y="475.9583"/><rect fill="#F1F1F1" height="2" style="stroke:#181818;stroke-width:0.5;" width="4" x="314.9455" y="477.9583"/><rect fill="#F1F1F1" height="2" style="stroke:#181818;stroke-width:0.5;" width="4" x="314.9455" y="481.9583"/><text fill="#000000" font-family="sans-serif" font-size="14" lengthAdjust="spacing" textLength="105.8955" x="206.05" y="504.4934">Spec Aggregate</text></g><!--entity commands--><g id="elem_commands"><rect fill="#F1F1F1" height="46.4883" rx="2.5" ry="2.5" style="stroke:#181818;stroke-width:0.5;" width="116.7949" x="45.6" y="589.8183"/><rect fill="#F1F1F1" height="10" style="stroke:#181818;stroke-width:0.5;" width="15" x="142.3949" y="594.8183"/><rect fill="#F1F1F1" height="2" style="stroke:#181818;stroke-width:0.5;" width="4" x="140.3949" y="596.8183"/><rect fill="#F1F1F1" height="2" style="stroke:#181818;stroke-width:0.5;" width="4" x="140.3949" y="600.8183"/><text fill="#000000" font-family="sans-serif" font-size="14" lengthAdjust="spacing" textLength="76.7949" x="60.6" y="623.3534">Commands</text></g><!--entity events--><g id="elem_events"><rect fill="#F1F1F1" height="46.4883" rx="2.5" ry="2.5" style="stroke:#181818;stroke-width:0.5;" width="83.6953" x="365.15" y="589.8183"/><rect fill="#F1F1F1" height="10" style="stroke:#181818;stroke-width:0.5;" width="15" x="428.8453" y="594.8183"/><rect fill="#F1F1F1" height="2" style="stroke:#181818;stroke-width:0.5;" width="4" x="426.8453" y="596.8183"/><rect fill="#F1F1F1" height="2" style="stroke:#181818;stroke-width:0.5;" width="4" x="426.8453" y="600.8183"/><text fill="#000000" font-family="sans-serif" font-size="14" lengthAdjust="spacing" textLength="43.6953" x="380.15" y="623.3534">Events</text></g><!--entity value_objects--><g id="elem_value_objects"><rect fill="#F1F1F1" height="46.4883" rx="2.5" ry="2.5" style="stroke:#181818;stroke-width:0.5;" width="133.1396" x="197.43" y="589.8183"/><rect fill="#F1F1F1" height="10" style="stroke:#181818;stroke-width:0.5;" width="15" x="310.5696" y="594.8183"/><rect fill="#F1F1F1" height="2" style="stroke:#181818;stroke-width:0.5;" width="4" x="308.5696" y="596.8183"/><rect fill="#F1F1F1" height="2" style="stroke:#181818;stroke-width:0.5;" width="4" x="308.5696" y="600.8183"/><text fill="#000000" font-family="sans-serif" font-size="14" lengthAdjust="spacing" textLength="93.1396" x="212.43" y="623.3534">Value Objects</text></g><!--entity event_store--><g id="elem_event_store"><rect fill="#F1F1F1" height="46.4883" rx="2.5" ry="2.5" style="stroke:#181818;stroke-width:0.5;" width="163.2861" x="664.36" y="349.4683"/><rect fill="#F1F1F1" height="10" style="stroke:#181818;stroke-width:0.5;" width="15" x="807.6461" y="354.4683"/><rect fill="#F1F1F1" height="2" style="stroke:#181818;stroke-width:0.5;" width="4" x="805.6461" y="356.4683"/><rect fill="#F1F1F1" height="2" style="stroke:#181818;stroke-width:0.5;" width="4" x="805.6461" y="360.4683"/><text fill="#000000" font-family="sans-serif" font-size="14" lengthAdjust="spacing" textLength="123.2861" x="679.36" y="383.0034">SQLite Event Store</text></g><!--entity projections--><g id="elem_projections"><rect fill="#F1F1F1" height="46.4883" rx="2.5" ry="2.5" style="stroke:#181818;stroke-width:0.5;" width="115.0039" x="505.5" y="470.9583"/><rect fill="#F1F1F1" height="10" style="stroke:#181818;stroke-width:0.5;" width="15" x="600.5039" y="475.9583"/><rect fill="#F1F1F1" height="2" style="stroke:#181818;stroke-width:0.5;" width="4" x="598.5039" y="477.9583"/><rect fill="#F1F1F1" height="2" style="stroke:#181818;stroke-width:0.5;" width="4" x="598.5039" y="481.9583"/><text fill="#000000" font-family="sans-serif" font-size="14" lengthAdjust="spacing" textLength="75.0039" x="520.5" y="504.4934">Projections</text></g><!--entity repos--><g id="elem_repos"><rect fill="#F1F1F1" height="46.4883" rx="2.5" ry="2.5" style="stroke:#181818;stroke-width:0.5;" width="123.7949" x="505.1" y="349.4683"/><rect fill="#F1F1F1" height="10" style="stroke:#181818;stroke-width:0.5;" width="15" x="608.8949" y="354.4683"/><rect fill="#F1F1F1" height="2" style="stroke:#181818;stroke-width:0.5;" width="4" x="606.8949" y="356.4683"/><rect fill="#F1F1F1" height="2" style="stroke:#181818;stroke-width:0.5;" width="4" x="606.8949" y="360.4683"/><text fill="#000000" font-family="sans-serif" font-size="14" lengthAdjust="spacing" textLength="83.7949" x="520.1" y="383.0034">Repositories</text></g><g id="elem_GMN35"><path d="M884.36,458.5783 L884.36,529.8205 L1057.6403,529.8205 L1057.6403,468.5783 L1047.6403,458.5783 L884.36,458.5783 " fill="#FEFFDD" style="stroke:#181818;stroke-width:0.5;"/><path d="M1047.6403,458.5783 L1047.6403,468.5783 L1057.6403,468.5783 L1047.6403,458.5783 " fill="#FEFFDD" style="stroke:#181818;stroke-width:1;"/><text fill="#000000" font-family="sans-serif" font-size="13" lengthAdjust="spacing" textLength="152.2803" x="890.36" y="476.1466">Enforces business rules:</text><text fill="#000000" font-family="sans-serif" font-size="13" lengthAdjust="spacing" textLength="114.0103" x="890.36" y="491.4572">- State transitions</text><text fill="#000000" font-family="sans-serif" font-size="13" lengthAdjust="spacing" textLength="145.4692" x="890.36" y="506.7677">- Version management</text><text fill="#000000" font-family="sans-serif" font-size="13" lengthAdjust="spacing" textLength="74.8643" x="890.36" y="522.0783">- Validation</text></g><g id="elem_GMN38"><path d="M1092.17,473.8883 L1092.17,514.5094 L1259.8263,514.5094 L1259.8263,483.8883 L1249.8263,473.8883 L1092.17,473.8883 " fill="#FEFFDD" style="stroke:#181818;stroke-width:0.5;"/><path d="M1249.8263,473.8883 L1249.8263,483.8883 L1259.8263,483.8883 L1249.8263,473.8883 " fill="#FEFFDD" style="stroke:#181818;stroke-width:1;"/><text fill="#000000" font-family="sans-serif" font-size="13" lengthAdjust="spacing" textLength="145.1709" x="1098.17" y="491.4566">Append-only event log</text><text fill="#000000" font-family="sans-serif" font-size="13" lengthAdjust="spacing" textLength="146.6563" x="1098.17" y="506.7672">with SQLite persistence</text></g><!--link rest to cmd_handler--><g id="link_rest_cmd_handler"><path d="M213.11,168.2083 C208.46,189.5683 202.7854,215.6554 198.1454,236.9854 " fill="none" id="rest-to-cmd_handler" style="stroke:#181818;stroke-width:1;"/><polygon fill="#181818" points="196.87,242.8483,202.6917,234.9042,197.9328,237.9625,194.8745,233.2037,196.87,242.8483" style="stroke:#181818;stroke-width:1;"/></g><!--link rest to query_handler--><g id="link_rest_query_handler"><path d="M249.47,168.3083 C262.92,178.0083 278.77,189.4983 293,199.9783 C312.15,214.0883 328.7386,226.4969 345.5086,239.1369 " fill="none" id="rest-to-query_handler" style="stroke:#181818;stroke-width:1;"/><polygon fill="#181818" points="350.3,242.7483,345.5205,234.1369,346.3072,239.7388,340.7053,240.5254,350.3,242.7483" style="stroke:#181818;stroke-width:1;"/></g><!--link grpc to cmd_handler--><g id="link_grpc_cmd_handler"><path d="M322.72,168.2083 C294.02,189.5083 255.978,217.7425 227.238,239.0725 " fill="none" id="grpc-to-cmd_handler" style="stroke:#181818;stroke-width:1;"/><polygon fill="#181818" points="222.42,242.6483,232.0309,240.4966,226.435,239.6684,227.2632,234.0725,222.42,242.6483" style="stroke:#181818;stroke-width:1;"/></g><!--link grpc to query_handler--><g id="link_grpc_query_handler"><path d="M358.08,168.2083 C362.91,189.5683 368.7975,215.6658 373.6175,236.9958 " fill="none" id="grpc-to-query_handler" style="stroke:#181818;stroke-width:1;"/><polygon fill="#181818" points="374.94,242.8483,376.8579,233.188,373.8379,237.9713,369.0546,234.9513,374.94,242.8483" style="stroke:#181818;stroke-width:1;"/></g><!--link cmd_handler to aggregate--><g id="link_cmd_handler_aggregate"><path d="M199.17,289.7183 C212.93,332.9183 241.1079,421.3516 254.9379,464.7416 " fill="none" id="cmd_handler-to-aggregate" style="stroke:#181818;stroke-width:1;"/><polygon fill="#181818" points="256.76,470.4583,257.8379,460.6686,255.2416,465.6944,250.2158,463.0981,256.76,470.4583" style="stroke:#181818;stroke-width:1;"/></g><!--link cmd_handler to event_store--><g id="link_cmd_handler_event_store"><path d="M275.85,286.6683 C281.97,287.7283 288.07,288.6783 294,289.4683 C371.64,299.7383 571.5,282.3383 646,306.4683 C673.61,315.4083 696.223,330.3575 715.313,345.4475 " fill="none" id="cmd_handler-to-event_store" style="stroke:#181818;stroke-width:1;"/><polygon fill="#181818" points="720.02,349.1683,715.44,340.4492,716.0975,346.0677,710.479,346.7252,720.02,349.1683" style="stroke:#181818;stroke-width:1;"/></g><!--link cmd_handler to event_bus--><g id="link_cmd_handler_event_bus"><path d="M236.48,289.8983 C270.87,307.4183 312.8941,328.844 347.2541,346.354 " fill="none" id="cmd_handler-to-event_bus" style="stroke:#181818;stroke-width:1;"/><polygon fill="#181818" points="352.6,349.0783,346.3974,341.428,348.1451,346.8081,342.765,348.5558,352.6,349.0783" style="stroke:#181818;stroke-width:1;"/></g><!--link query_handler to projections--><g id="link_query_handler_projections"><path d="M340.32,289.7583 C334.95,294.5583 330.19,300.1283 327,306.4683 C304.3,351.5083 292.38,383.2683 327,419.9583 C337.54,431.1283 450.43,423.0883 465,427.9583 C492.14,437.0283 514.2268,451.9252 532.9168,466.9752 " fill="none" id="query_handler-to-projections" style="stroke:#181818;stroke-width:1;"/><polygon fill="#181818" points="537.59,470.7383,533.0889,461.9782,533.6956,467.6024,528.0714,468.2091,537.59,470.7383" style="stroke:#181818;stroke-width:1;"/></g><!--link query_handler to repos--><g id="link_query_handler_repos"><path d="M431.8,289.7683 C442.9,294.9783 454.45,300.6883 465,306.4683 C488.79,319.4883 509.5116,332.6142 529.1716,345.7542 " fill="none" id="query_handler-to-repos" style="stroke:#181818;stroke-width:1;"/><polygon fill="#181818" points="534.16,349.0883,528.9001,340.7616,530.003,346.3099,524.4547,347.4128,534.16,349.0883" style="stroke:#181818;stroke-width:1;"/></g><!--link event_bus to projections--><g id="link_event_bus_projections"><path d="M428.22,396.1883 C457.81,417.4783 497.1297,445.7939 526.7597,467.1139 " fill="none" id="event_bus-to-projections" style="stroke:#181818;stroke-width:1;"/><polygon fill="#181818" points="531.63,470.6183,526.6608,462.1149,527.5714,467.698,521.9884,468.6086,531.63,470.6183" style="stroke:#181818;stroke-width:1;"/></g><!--link aggregate to commands--><g id="link_aggregate_commands"><path d="M233.15,517.7283 C204.91,538.3583 168.1646,565.1886 139.8746,585.8586 " fill="none" id="aggregate-to-commands" style="stroke:#181818;stroke-width:1;"/><polygon fill="#181818" points="135.03,589.3983,144.6568,587.3185,139.0672,586.4485,139.9371,580.859,135.03,589.3983" style="stroke:#181818;stroke-width:1;"/></g><!--link aggregate to events--><g id="link_aggregate_events"><path d="M291.57,517.7283 C316.89,538.4283 349.5743,565.1313 374.8643,585.8013 " fill="none" id="aggregate-to-events" style="stroke:#181818;stroke-width:1;"/><polygon fill="#181818" points="379.51,589.5983,375.0728,580.8056,375.6386,586.4341,370.0101,586.9999,379.51,589.5983" style="stroke:#181818;stroke-width:1;"/></g><!--link aggregate to value_objects--><g id="link_aggregate_value_objects"><path d="M264,517.7283 C264,538.4283 264,562.9283 264,583.5983 " fill="none" id="aggregate-to-value_objects" style="stroke:#181818;stroke-width:1;"/><polygon fill="#181818" points="264,589.5983,268,580.5983,264,584.5983,260,580.5983,264,589.5983" style="stroke:#181818;stroke-width:1;"/></g><!--link event_store to events--><g id="link_event_store_events"><path d="M737.48,396.3383 C722.74,432.4083 689.1,502.7783 638,541.4383 C581.48,584.2083 504.8565,600.4885 455.2665,607.1585 " fill="none" id="event_store-to-events" style="stroke:#181818;stroke-width:1;"/><polygon fill="#181818" points="449.32,607.9583,458.7729,610.7229,454.2754,607.2918,457.7065,602.7943,449.32,607.9583" style="stroke:#181818;stroke-width:1;"/></g><!--link projections to events--><g id="link_projections_events"><path d="M532.92,517.7283 C505.39,538.3583 469.6419,565.1308 442.0519,585.8008 " fill="none" id="projections-to-events" style="stroke:#181818;stroke-width:1;"/><polygon fill="#181818" points="437.25,589.3983,446.8511,587.2033,441.2516,586.4004,442.0545,580.8008,437.25,589.3983" style="stroke:#181818;stroke-width:1;"/></g><!--link repos to projections--><g id="link_repos_projections"><path d="M566.25,396.1883 C565.53,417.5483 564.6596,443.5016 563.9496,464.8316 " fill="none" id="repos-to-projections" style="stroke:#181818;stroke-width:1;"/><polygon fill="#181818" points="563.75,470.8283,568.0472,461.9663,563.9163,465.831,560.0516,461.7002,563.75,470.8283" style="stroke:#181818;stroke-width:1;"/></g><!--link aggregate to GMN35--><g id="link_aggregate_GMN35"><path d="M337.4,471.3483 C381.22,458.0183 438.08,441.2583 489,427.9583 C496.72,425.9383 498.57,424.8483 506.5,423.9583 C541.83,419.9683 791.17,419.9683 826.5,423.9583 C859.21,427.6483 892.46,442.8583 918.81,458.1883 " fill="none" id="aggregate-GMN35" style="stroke:#181818;stroke-width:1;stroke-dasharray:7.0,7.0;"/></g><!--link event_store to GMN38--><g id="link_event_store_GMN38"><path d="M827.87,377.9083 C895.95,383.5583 994.4,396.8383 1075,427.9583 C1103.43,438.9283 1132.28,458.6083 1151.83,473.4883 " fill="none" id="event_store-GMN38" style="stroke:#181818;stroke-width:1;stroke-dasharray:7.0,7.0;"/></g><!--SRC=[RLJ1Rjim3BthAxXUTl8Fx30WJOsjGB6cIT7BC0IAp2XQPScLv0p1q7yVPRcsjFYG07oa-1x9btngyAWCmhPUFwz-V7keGMZkFMD11Osmwr303jrP2OGARdkb6sKat6ehNk5ESUbuorZ7nIkN23UUwYjFzUXku2y3c3AyKma1-BcjTy-msjp_0kx1eGy9bjlDUeAbwmJ1x_GfstHQ2HwKDLExjMrRRXhuJbyQtV1SjCt-bE9KzDIZknGbRn4fY-epca1J-g40OxG_z7v1HsDRhcO9mvvMKZgKFE3mcdz4XSZKMOn1nffHZl0Brpt2u-4tYZ5xZiZU9cH1b397ntrmlGYzmrdSquCA26cuNR0Ei_5yZ5FTnjdOcLQRwBev7k-6dVMA7YZqu-q868IyC_OvtWuqlw231Ziq3Hf1bInU6AhgQt6K2IpF4Cz-LJk1PMradEsmn9mr6TxFD_a_aozZEHTzm0e1Gp9VqdKsBOXD7QwUq0ntWvMMv4zoqqO-J5F2esLAi7GAaTmNrYXfijdpZfdC71v6kfx3MA9sIfu2s6DX_jeShHFeWUQdlnfFjkar-Y-KgiYEKN9mt92nHgTLy8BEnvFIl6JibdWJpBLgXcCpKW-HSYG-s11i6vbBLvC_gBAoHbzI1hILXFzHuGJZxwABP3xGCd1k-my0]--></g></svg>