<svg xmlns="http://www.w3.org/2000/svg" xmlns:xlink="http://www.w3.org/1999/xlink" contentStyleType="text/css" data-diagram-type="DESCRIPTION" height="491px" preserveAspectRatio="none" style="width:1173px;height:491px;background:#FFFFFF;" version="1.1" viewBox="0 0 1173 491" width="1173px" zoomAndPan="magnify"><title>Spec Service - System Context</title><defs/><g><text fill="#000000" font-family="Verdana" font-size="22" font-weight="bold" lengthAdjust="spacing" textLength="376.7285" x="393.7207" y="37.1182">Spec Service - System Context</text><!--cluster spec_service--><g id="cluster_spec_service"><rect fill="#FFFFFF" height="105.29" rx="2.5" ry="2.5" style="stroke:#000000;stroke-width:1;" width="760" x="53.17" y="206.7473"/><text fill="#000000" font-family="Verdana" font-size="14" font-weight="bold" lengthAdjust="spacing" textLength="99.6748" x="383.3326" y="222.8225">Spec Service</text></g><!--cluster external--><g id="cluster_external"><rect fill="#FFFFFF" height="116.03" rx="2.5" ry="2.5" style="stroke:#000000;stroke-width:1;" width="535" x="632.17" y="369.0373"/><text fill="#000000" font-family="Verdana" font-size="14" font-weight="bold" lengthAdjust="spacing" textLength="136.6162" x="831.3619" y="385.1125">External Systems</text></g><g id="elem_uc1"><ellipse cx="151.1659" cy="269.3985" fill="#FFFFFF" rx="73.6059" ry="17.1212" style="stroke:#000000;stroke-width:1;"/><text fill="#000000" font-family="Verdana" font-size="14" lengthAdjust="spacing" textLength="100.6797" x="100.0529" y="273.1711">Manage Specs</text></g><g id="elem_uc2"><ellipse cx="336.1701" cy="269.4013" fill="#FFFFFF" rx="76.1701" ry="17.634" style="stroke:#000000;stroke-width:1;"/><text fill="#000000" font-family="Verdana" font-size="14" lengthAdjust="spacing" textLength="107.0713" x="282.6344" y="272.9692">Query Versions</text></g><g id="elem_uc3"><ellipse cx="707.1703" cy="269.3946" fill="#FFFFFF" rx="63.0603" ry="15.1473" style="stroke:#000000;stroke-width:1;"/><text fill="#000000" font-family="Verdana" font-size="14" lengthAdjust="spacing" textLength="72.126" x="668.1073" y="273.6822">Audit Trail</text></g><g id="elem_uc4"><ellipse cx="528.1705" cy="269.4014" fill="#FFFFFF" rx="81.2205" ry="18.6441" style="stroke:#000000;stroke-width:1;"/><text fill="#000000" font-family="Verdana" font-size="14" lengthAdjust="spacing" textLength="119.2871" x="468.5269" y="272.9693">State Transitions</text></g><!--entity monitoring--><g id="elem_monitoring"><rect fill="#FFFFFF" height="64.0293" rx="2.5" ry="2.5" style="stroke:#000000;stroke-width:1;" width="136.4551" x="647.94" y="405.0373"/><rect fill="#FFFFFF" height="10" style="stroke:#000000;stroke-width:1;" width="15" x="764.3951" y="410.0373"/><rect fill="#FFFFFF" height="2" style="stroke:#000000;stroke-width:1;" width="4" x="762.3951" y="412.0373"/><rect fill="#FFFFFF" height="2" style="stroke:#000000;stroke-width:1;" width="4" x="762.3951" y="416.0373"/><text fill="#000000" font-family="Verdana" font-size="14" lengthAdjust="spacing" textLength="74.4092" x="662.94" y="439.1125">Monitoring</text><text fill="#000000" font-family="Verdana" font-size="14" lengthAdjust="spacing" textLength="96.4551" x="662.94" y="456.1271">(Prometheus)</text></g><!--entity logging--><g id="elem_logging"><rect fill="#FFFFFF" height="64.0293" rx="2.5" ry="2.5" style="stroke:#000000;stroke-width:1;" width="155.1104" x="819.61" y="405.0373"/><rect fill="#FFFFFF" height="10" style="stroke:#000000;stroke-width:1;" width="15" x="954.7204" y="410.0373"/><rect fill="#FFFFFF" height="2" style="stroke:#000000;stroke-width:1;" width="4" x="952.7204" y="412.0373"/><rect fill="#FFFFFF" height="2" style="stroke:#000000;stroke-width:1;" width="4" x="952.7204" y="416.0373"/><text fill="#000000" font-family="Verdana" font-size="14" lengthAdjust="spacing" textLength="115.1104" x="834.61" y="439.1125">Log Aggregation</text><text fill="#000000" font-family="Verdana" font-size="14" lengthAdjust="spacing" textLength="39.0605" x="834.61" y="456.1271">(ELK)</text></g><!--entity cicd--><g id="elem_cicd"><rect fill="#FFFFFF" height="47.0146" rx="2.5" ry="2.5" style="stroke:#000000;stroke-width:1;" width="141.7393" x="1009.3" y="413.5473"/><rect fill="#FFFFFF" height="10" style="stroke:#000000;stroke-width:1;" width="15" x="1131.0393" y="418.5473"/><rect fill="#FFFFFF" height="2" style="stroke:#000000;stroke-width:1;" width="4" x="1129.0393" y="420.5473"/><rect fill="#FFFFFF" height="2" style="stroke:#000000;stroke-width:1;" width="4" x="1129.0393" y="424.5473"/><text fill="#000000" font-family="Verdana" font-size="14" lengthAdjust="spacing" textLength="101.7393" x="1024.3" y="447.6225">CI/CD Pipeline</text></g><!--entity dev--><g id="elem_dev"><ellipse cx="119.164" cy="66.7373" fill="#FFFFFF" rx="8" ry="8" style="stroke:#000000;stroke-width:1;"/><path d="M119.164,74.7373 L119.164,101.7373 M106.164,82.7373 L132.164,82.7373 M119.164,101.7373 L106.164,116.7373 M119.164,101.7373 L132.164,116.7373 " fill="none" style="stroke:#000000;stroke-width:1;"/><text fill="#000000" font-family="Verdana" font-size="14" lengthAdjust="spacing" textLength="71.1279" x="83.6" y="132.8125">Developer</text></g><!--entity ops--><g id="elem_ops"><ellipse cx="537.1668" cy="66.7373" fill="#FFFFFF" rx="8" ry="8" style="stroke:#000000;stroke-width:1;"/><path d="M537.1668,74.7373 L537.1668,101.7373 M524.1668,82.7373 L550.1668,82.7373 M537.1668,101.7373 L524.1668,116.7373 M537.1668,101.7373 L550.1668,116.7373 " fill="none" style="stroke:#000000;stroke-width:1;"/><text fill="#000000" font-family="Verdana" font-size="14" lengthAdjust="spacing" textLength="76.4736" x="498.93" y="132.8125">Operations</text></g><!--entity compliance--><g id="elem_compliance"><ellipse cx="707.1663" cy="66.7373" fill="#FFFFFF" rx="8" ry="8" style="stroke:#000000;stroke-width:1;"/><path d="M707.1663,74.7373 L707.1663,101.7373 M694.1663,82.7373 L720.1663,82.7373 M707.1663,101.7373 L694.1663,116.7373 M707.1663,101.7373 L720.1663,116.7373 " fill="none" style="stroke:#000000;stroke-width:1;"/><text fill="#000000" font-family="Verdana" font-size="14" lengthAdjust="spacing" textLength="132.4326" x="640.95" y="132.8125">Compliance Officer</text></g><!--entity consumer--><g id="elem_consumer"><ellipse cx="368.1621" cy="66.7373" fill="#FFFFFF" rx="8" ry="8" style="stroke:#000000;stroke-width:1;"/><path d="M368.1621,74.7373 L368.1621,101.7373 M355.1621,82.7373 L381.1621,82.7373 M368.1621,101.7373 L355.1621,116.7373 M368.1621,101.7373 L381.1621,116.7373 " fill="none" style="stroke:#000000;stroke-width:1;"/><text fill="#000000" font-family="Verdana" font-size="14" lengthAdjust="spacing" textLength="127.7842" x="304.27" y="132.8125">Service Consumer</text></g><g id="elem_GMN23"><path d="M335.03,416.2573 L335.03,457.8559 L613.3005,457.8559 L613.3005,426.2573 L603.3005,416.2573 L335.03,416.2573 " fill="#FFFFFF" style="stroke:#000000;stroke-width:1;"/><path d="M603.3005,416.2573 L603.3005,426.2573 L613.3005,426.2573 L603.3005,416.2573 " fill="#FFFFFF" style="stroke:#000000;stroke-width:1;"/><text fill="#000000" font-family="Verdana" font-size="13" lengthAdjust="spacing" textLength="231.0103" x="341.03" y="434.3271">Event sourced architecture ensures</text><text fill="#000000" font-family="Verdana" font-size="13" lengthAdjust="spacing" textLength="257.2705" x="341.03" y="450.1264">complete audit trail and version history</text></g><!--link dev to uc1--><g id="link_dev_uc1"><path d="M83.24,111.6373 C50.98,126.4373 11,151.9373 27.17,182.7473 C45.34,217.3873 79.1117,238.2859 108.6217,251.7559 " fill="none" id="dev-to-uc1" style="stroke:#000000;stroke-width:1;"/><polygon fill="#000000" points="114.08,254.2473,107.5536,246.8713,109.5314,252.1711,104.2316,254.149,114.08,254.2473" style="stroke:#000000;stroke-width:1;"/><text fill="#000000" font-family="Verdana" font-size="13" lengthAdjust="spacing" textLength="136.0684" x="28.17" y="179.8171">Create/Update specs</text></g><!--link dev to uc2--><g id="link_dev_uc2"><path d="M154.86,129.8873 C174.7,146.8373 200.35,167.2673 225.17,182.7473 C232.25,187.1673 235.11,186.2773 242.17,190.7473 C270.95,208.9973 296.3077,230.9306 314.4277,247.7106 " fill="none" id="dev-to-uc2" style="stroke:#000000;stroke-width:1;"/><polygon fill="#000000" points="318.83,251.7873,314.9444,242.7373,315.1614,248.39,309.5087,248.6071,318.83,251.7873" style="stroke:#000000;stroke-width:1;"/><text fill="#000000" font-family="Verdana" font-size="13" lengthAdjust="spacing" textLength="118.5615" x="226.17" y="179.8171">Test with versions</text></g><!--link ops to uc4--><g id="link_ops_uc4"><path d="M535.15,136.0373 C533.26,171.8073 530.8456,217.6256 529.4256,244.5856 " fill="none" id="ops-to-uc4" style="stroke:#000000;stroke-width:1;"/><polygon fill="#000000" points="529.11,250.5773,533.5778,241.8002,529.373,245.5842,525.5889,241.3794,529.11,250.5773" style="stroke:#000000;stroke-width:1;"/><text fill="#000000" font-family="Verdana" font-size="13" lengthAdjust="spacing" textLength="118.8027" x="534.47" y="179.8171">Publish/Deprecate</text></g><!--link compliance to uc3--><g id="link_compliance_uc3"><path d="M707.17,136.0373 C707.17,173.3773 707.17,222.1973 707.17,247.9873 " fill="none" id="compliance-to-uc3" style="stroke:#000000;stroke-width:1;"/><polygon fill="#000000" points="707.17,253.9873,711.17,244.9873,707.17,248.9873,703.17,244.9873,707.17,253.9873" style="stroke:#000000;stroke-width:1;"/><text fill="#000000" font-family="Verdana" font-size="13" lengthAdjust="spacing" textLength="104.6475" x="708.17" y="179.8171">Review changes</text></g><!--link consumer to uc2--><g id="link_consumer_uc2"><path d="M360.98,136.0373 C354.2,172.2073 345.4565,218.8602 340.4465,245.5602 " fill="none" id="consumer-to-uc2" style="stroke:#000000;stroke-width:1;"/><polygon fill="#000000" points="339.34,251.4573,344.9312,243.3494,340.2621,246.5431,337.0684,241.874,339.34,251.4573" style="stroke:#000000;stroke-width:1;"/><text fill="#000000" font-family="Verdana" font-size="13" lengthAdjust="spacing" textLength="127.8291" x="356.03" y="179.8171">Fetch current specs</text></g><!--link spec_service to monitoring--><g id="link_spec_service_monitoring"><path d="M792.8547,312.0597 C792.8179,312.159 792.781,312.2582 792.7441,312.3575 C792.6702,312.5561 792.5961,312.7546 792.5216,312.9531 C792.3727,313.3501 792.2227,313.747 792.0716,314.1435 C791.4672,315.7298 790.845,317.3112 790.2057,318.8785 C788.927,322.0131 787.58,325.0911 786.17,328.0373 C785.18,330.0973 760.1763,368.5608 739.8663,399.7208 " fill="none" id="spec_service-to-monitoring" style="stroke:#000000;stroke-width:1;"/><polygon fill="#000000" points="736.59,404.7473,744.8554,399.3917,739.3202,400.5585,738.1534,395.0233,736.59,404.7473" style="stroke:#000000;stroke-width:1;"/><text fill="#000000" font-family="Verdana" font-size="13" lengthAdjust="spacing" textLength="46.4839" x="781.84" y="350.1071">Metrics</text></g><!--link spec_service to logging--><g id="link_spec_service_logging"><path d="M813.3429,285.12 C813.419,285.257 813.4955,285.3948 813.5724,285.5333 C813.7263,285.8104 813.882,286.0907 814.0394,286.374 C819.0756,295.4414 825.875,307.6842 833.4275,321.2836 C848.5325,348.4823 863.7371,375.8618 876.7871,399.3618 " fill="none" id="spec_service-to-logging" style="stroke:#000000;stroke-width:1;"/><polygon fill="#000000" points="879.7,404.6073,878.8276,394.7972,877.2726,400.2361,871.8337,398.681,879.7,404.6073" style="stroke:#000000;stroke-width:1;"/><text fill="#000000" font-family="Verdana" font-size="13" lengthAdjust="spacing" textLength="100.1978" x="849.41" y="350.1071">Structured logs</text></g><!--link cicd to spec_service--><g id="link_cicd_spec_service"><path d="M1054.39,413.2373 C1037.07,398.1073 1013.57,377.9873 992.17,361.0373 C977.46,349.3873 974.45,345.3473 958.17,336.0373 C926.555,317.9523 888.995,301.7673 859.0013,289.9936 C844.0044,284.1067 830.8991,279.3226 821.3742,275.9553 C818.993,275.1134 816.8356,274.3601 814.9283,273.7003 C814.4515,273.5353 813.9903,273.3762 813.5452,273.223 C813.4339,273.1847 818.9978,275.0972 818.8885,275.0596 " fill="none" id="cicd-to-spec_service" style="stroke:#000000;stroke-width:1;"/><polygon fill="#000000" points="813.2144,273.1092,820.4253,279.8176,817.9428,274.7346,823.0258,272.252,813.2144,273.1092" style="stroke:#000000;stroke-width:1;"/><text fill="#000000" font-family="Verdana" font-size="13" lengthAdjust="spacing" textLength="85.7441" x="983.02" y="350.1071">Deploy specs</text></g><!--link spec_service to GMN23--><g id="link_spec_service_GMN23"><path d="M797.2186,312.2937 C797.176,312.3877 797.1332,312.4816 797.0902,312.5754 C797.0041,312.763 796.9172,312.9502 796.8293,313.1369 C796.6535,313.5105 796.474,313.8822 796.2908,314.2519 C795.9244,314.9915 795.5428,315.7231 795.1457,316.4451 C794.3513,317.8891 793.4942,319.2947 792.5695,320.6484 C790.72,323.3556 788.6,325.8548 786.17,328.0373 C779.66,333.8873 640.45,358.2273 632.17,361.0373 C588.89,375.7273 541.89,399.0673 510.5,415.8173 " fill="none" id="spec_service-GMN23" style="stroke:#000000;stroke-width:1;stroke-dasharray:7.0,7.0;"/></g><!--SRC=[PL9DRzim3BthLt0vROSWwCV9Xm65am75MZIRkvqA3AhCs09aoP0ejy6m_pxAiXC7FOhlaNnyJv-enGwXDr9R8KYJGQXwL52X7xH2M4Dr38GTbCuIlfCGKf7piDhYWCRrw5SW0zGupC0JroHfPyE8k3xCIEcwtcXfUUpJuS3JSwywbMVYl9ntXjYTQFaXX4T5qZOiTRNKEh825_w4gV-l08W1bGnCVPHMDlcwh2oggoN-8w8_mc_quQGzgkibuoxMck3PIsqc-6O9LoG94so3fiMCM_7lGlFkdT1RQIPdCmtdOjAS774MBR5gPpLxectpOZ_llUkG4ulXozZKdS3BfWVNm5tJU6p68BXpz_0zjnZND1_uvVsctC9UzsYqpJughUgacuE5zVfhCgk0qYEVkFdLr-dIP7LO4AuBUCP0yAQfXM7oKN3-4tvRm3w-6XtQpHPxDeI7Y7Fu4-kcW9yuQ7m3rR9X6CGS_7dDDoJLWehU9_bPXxX8Fb7FxXJmYEGripwG9ZyAgCX7HT5ZdMgybGqO6SkM0bYvSSTvftNimwiZSXsummML7TuDepmNlUAfqgjM4uux0FaapxVb60po63d-Bag_2wIjPmUXrO6lE0haMjed_WC0]--></g></svg>