<svg xmlns="http://www.w3.org/2000/svg" xmlns:xlink="http://www.w3.org/1999/xlink" contentStyleType="text/css" data-diagram-type="DESCRIPTION" height="899px" preserveAspectRatio="none" style="width:2019px;height:899px;background:#FFFFFF;" version="1.1" viewBox="0 0 2019 899" width="2019px" zoomAndPan="magnify"><title>Spec Service - Deployment View</title><defs/><g><text fill="#000000" font-family="Verdana" font-size="22" font-weight="bold" lengthAdjust="spacing" textLength="399.0078" x="805.7299" y="37.1182">Spec Service - Deployment View</text><!--cluster dev--><g id="cluster_dev"><polygon fill="#FFFFFF" points="322.8193,239.9739,332.8193,229.9739,700.8193,229.9739,700.8193,601.3139,690.8193,611.3139,322.8193,611.3139,322.8193,239.9739" style="stroke:#000000;stroke-width:1;"/><line style="stroke:#000000;stroke-width:1;" x1="690.8193" x2="700.8193" y1="239.9739" y2="229.9739"/><line style="stroke:#000000;stroke-width:1;" x1="322.8193" x2="690.8193" y1="239.9739" y2="239.9739"/><line style="stroke:#000000;stroke-width:1;" x1="690.8193" x2="690.8193" y1="239.9739" y2="611.3139"/><text fill="#000000" font-family="Verdana" font-size="14" font-weight="bold" lengthAdjust="spacing" textLength="209.1729" x="403.2329" y="257.0491">Development Environment</text></g><!--cluster dev_server--><g id="cluster_dev_server"><rect fill="#FFFFFF" height="131.03" rx="2.5" ry="2.5" style="stroke:#000000;stroke-width:1;" width="290" x="362.8193" y="294.9739"/><rect fill="#FFFFFF" height="10" style="stroke:#000000;stroke-width:1;" width="15" x="632.8193" y="299.9739"/><rect fill="#FFFFFF" height="2" style="stroke:#000000;stroke-width:1;" width="4" x="630.8193" y="301.9739"/><rect fill="#FFFFFF" height="2" style="stroke:#000000;stroke-width:1;" width="4" x="630.8193" y="305.9739"/><text fill="#000000" font-family="Verdana" font-size="14" font-weight="bold" lengthAdjust="spacing" textLength="92.2646" x="461.687" y="322.0491">spec-server</text></g><!--cluster prod1--><g id="cluster_prod1"><polygon fill="#FFFFFF" points="732.8193,238.9739,742.8193,228.9739,1104.8193,228.9739,1104.8193,644.0339,1094.8193,654.0339,732.8193,654.0339,732.8193,238.9739" style="stroke:#000000;stroke-width:1;"/><line style="stroke:#000000;stroke-width:1;" x1="1094.8193" x2="1104.8193" y1="238.9739" y2="228.9739"/><line style="stroke:#000000;stroke-width:1;" x1="732.8193" x2="1094.8193" y1="238.9739" y2="238.9739"/><line style="stroke:#000000;stroke-width:1;" x1="1094.8193" x2="1094.8193" y1="238.9739" y2="654.0339"/><text fill="#000000" font-family="Verdana" font-size="14" font-weight="bold" lengthAdjust="spacing" textLength="190.791" x="819.4238" y="256.0491">Production Environment</text><text fill="#000000" font-family="Verdana" font-size="14" font-weight="bold" lengthAdjust="spacing" textLength="62.918" x="883.3603" y="273.0637">(Initial)</text></g><!--cluster container1--><g id="cluster_container1"><rect fill="#FFFFFF" height="131.03" rx="2.5" ry="2.5" style="stroke:#000000;stroke-width:1;" width="308" x="764.8193" y="491.0039"/><rect fill="#FFFFFF" height="10" style="stroke:#000000;stroke-width:1;" width="15" x="1052.8193" y="496.0039"/><rect fill="#FFFFFF" height="2" style="stroke:#000000;stroke-width:1;" width="4" x="1050.8193" y="498.0039"/><rect fill="#FFFFFF" height="2" style="stroke:#000000;stroke-width:1;" width="4" x="1050.8193" y="502.0039"/><text fill="#000000" font-family="Verdana" font-size="14" font-weight="bold" lengthAdjust="spacing" textLength="136.3633" x="850.6377" y="518.0791">Docker Container</text></g><!--cluster proxy1--><g id="cluster_proxy1"><rect fill="#FFFFFF" height="115.02" rx="2.5" ry="2.5" style="stroke:#000000;stroke-width:1;" width="197" x="794.8193" y="302.9739"/><rect fill="#FFFFFF" height="10" style="stroke:#000000;stroke-width:1;" width="15" x="971.8193" y="307.9739"/><rect fill="#FFFFFF" height="2" style="stroke:#000000;stroke-width:1;" width="4" x="969.8193" y="309.9739"/><rect fill="#FFFFFF" height="2" style="stroke:#000000;stroke-width:1;" width="4" x="969.8193" y="313.9739"/><text fill="#000000" font-family="Verdana" font-size="14" font-weight="bold" lengthAdjust="spacing" textLength="113.2988" x="836.6699" y="330.0491">Reverse Proxy</text></g><!--cluster prod2--><g id="cluster_prod2"><polygon fill="#FFFFFF" points="1136.8193,290.9739,1146.8193,280.9739,1807.8193,280.9739,1807.8193,872.0439,1797.8193,882.0439,1136.8193,882.0439,1136.8193,290.9739" style="stroke:#000000;stroke-width:1;"/><line style="stroke:#000000;stroke-width:1;" x1="1797.8193" x2="1807.8193" y1="290.9739" y2="280.9739"/><line style="stroke:#000000;stroke-width:1;" x1="1136.8193" x2="1797.8193" y1="290.9739" y2="290.9739"/><line style="stroke:#000000;stroke-width:1;" x1="1797.8193" x2="1797.8193" y1="290.9739" y2="882.0439"/><text fill="#000000" font-family="Verdana" font-size="14" font-weight="bold" lengthAdjust="spacing" textLength="190.791" x="1372.9238" y="308.0491">Production Environment</text><text fill="#000000" font-family="Verdana" font-size="14" font-weight="bold" lengthAdjust="spacing" textLength="66.623" x="1435.0078" y="325.0637">(Scaled)</text></g><!--cluster pg--><g id="cluster_pg"><path d="M1176.8193,705.0339 C1176.8193,695.0339 1349.8193,695.0339 1349.8193,695.0339 C1349.8193,695.0339 1522.8193,695.0339 1522.8193,705.0339 L1522.8193,832.0439 C1522.8193,842.0439 1349.8193,842.0439 1349.8193,842.0439 C1349.8193,842.0439 1176.8193,842.0439 1176.8193,832.0439 L1176.8193,705.0339 " fill="#FFFFFF" style="stroke:#000000;stroke-width:1;"/><path d="M1176.8193,705.0339 C1176.8193,715.0339 1349.8193,715.0339 1349.8193,715.0339 C1349.8193,715.0339 1522.8193,715.0339 1522.8193,705.0339 " fill="none" style="stroke:#000000;stroke-width:1;"/><text fill="#000000" font-family="Verdana" font-size="14" font-weight="bold" lengthAdjust="spacing" textLength="91.3691" x="1304.1347" y="731.1091">PostgreSQL</text><text fill="#000000" font-family="Verdana" font-size="14" font-weight="bold" lengthAdjust="spacing" textLength="106.5039" x="1296.5674" y="748.1237">(Event Store)</text></g><!--cluster cache--><g id="cluster_cache"><rect fill="#FFFFFF" height="115.01" rx="2.5" ry="2.5" style="stroke:#000000;stroke-width:1;" width="197" x="1562.8193" y="727.0339"/><rect fill="#FFFFFF" height="10" style="stroke:#000000;stroke-width:1;" width="15" x="1739.8193" y="732.0339"/><rect fill="#FFFFFF" height="2" style="stroke:#000000;stroke-width:1;" width="4" x="1737.8193" y="734.0339"/><rect fill="#FFFFFF" height="2" style="stroke:#000000;stroke-width:1;" width="4" x="1737.8193" y="738.0339"/><text fill="#000000" font-family="Verdana" font-size="14" font-weight="bold" lengthAdjust="spacing" textLength="43.1279" x="1639.7553" y="754.1091">Redis</text></g><!--cluster clients--><g id="cluster_clients"><path d="M39.5558,76.9112 C48.158,64.9064 56.2124,64.9597 64.3499,77.3828 C69.6454,68.6207 79.937,66.6324 85.3853,77.2166 C91.0635,64.3561 99.3703,64.3169 108.3824,73.7823 C116.5961,62.0722 125.207,58.7373 134.4671,72.72 C141.3286,62.1427 149.4382,60.8556 156.8853,72.1189 C164.9023,63.7558 171.2081,65.584 176.8417,74.8213 C184.8376,61.8203 194.4135,62.1455 203.4109,73.7393 C210.0639,65.9653 217.8306,64.1615 223.2569,75.0441 C230.7042,65.0723 239.3294,64.3967 245.0961,76.6923 C258.063,62.7481 268.0691,67.3872 274.8193,82.9539 C275.8848,82.1552 276.7368,82.4822 276.9462,83.8101 C287.4541,92.5676 285.8024,99.9606 275.548,107.4922 C286.0445,114.6452 290.0681,122.2897 277.626,131.4337 C287.5922,137.9786 287.9362,145.973 277.3417,152.2368 C289.1057,157.44 290.1801,169.0056 281.0085,177.2748 C292.0776,186.3413 292.6524,193.7282 279.1548,200.8642 C289.7681,204.549 289.9038,214.6063 282.0061,220.9226 C291.7568,228.3871 293.167,236.9063 282.5377,244.8241 C293.708,252.8458 293.3183,260.7889 281.9846,268.2799 C290.5352,276.6855 289.6598,283.359 279.9644,290.0732 C290.8952,295.558 292.9676,304.6917 281.5207,311.7808 C289.8427,320.4333 290.7494,329.5012 278.007,334.9607 C292.3653,342.1759 292.0692,351.7985 279.6638,360.7341 C289.2806,367.59 287.7206,377.1409 276.9366,381.2902 C287.9018,392.6855 283.837,407.1694 267.8193,409.9939 C269.7045,408.5521 271.4844,409.3504 272.0534,411.5319 C265.3146,424.1941 255.2536,422.9755 247.9664,412.093 C241.2539,422.009 231.4729,423.8618 224.3401,412.561 C218.1282,427.378 209.0312,426.2814 199.3598,416.0049 C193.2718,427.8605 184.6052,428.0813 177.8508,416.6197 C170.5062,426.9969 163.0831,427.9297 156.0549,416.3062 C149.4412,428.5699 139.0324,428.15 131.4878,417.2954 C125.0189,425.4613 115.5483,422.9703 111.7972,414.1457 C104.2419,426.4465 93.2732,425.8235 85.5537,414.3268 C79.1351,424.7069 70.2092,426.5593 62.7578,415.421 C47.7376,427.5015 35.2006,419.8894 31.8193,402.9939 C33.1005,401.5186 34.6863,401.365 35.7019,403.2966 C25.4038,397.7339 22.4604,390.1305 32.1583,381.3405 C20.303,375.6654 23.0764,365.2815 31.8501,359.3177 C22.4605,352.6559 22.3578,342.8119 32.7772,336.9719 C20.8575,331.9302 20.501,320.3952 30.2399,313.0557 C20.1995,306.1011 17.6848,298.1871 29.1927,290.2433 C17.6631,284.7819 17.1299,276.2821 27.4652,269.0393 C17.2091,263.314 14.1667,255.3486 24.4323,246.8219 C13.6106,239.573 11,226.9693 25.5187,220.7774 C18.115,213.7549 19.6974,203.9036 29.9362,200.7781 C19.2501,193.7689 17.6435,181.8828 30.7213,175.6151 C21.755,169.5054 19.2144,162.253 29.4988,155.0017 C20.0695,146.8979 19.6154,139.4189 29.8111,131.5768 C18.5236,123.2919 20.0775,113.9702 31.3231,107.0758 C20.7549,96.1215 22.5993,80.4559 38.8193,75.9539 C39.4093,75.9264 39.8587,76.2518 39.5558,76.9112 " fill="#FFFFFF" style="stroke:#000000;stroke-width:1;"/><text fill="#000000" font-family="Verdana" font-size="14" font-weight="bold" lengthAdjust="spacing" textLength="53.6553" x="126.4917" y="95.0291">Clients</text></g><g id="elem_GMN6"><path d="M515.2693,545.7139 L515.2693,587.3125 L668.3767,587.3125 L668.3767,555.7139 L658.3767,545.7139 L515.2693,545.7139 " fill="#FFFFFF" style="stroke:#000000;stroke-width:1;"/><path d="M658.3767,545.7139 L658.3767,555.7139 L668.3767,555.7139 L658.3767,545.7139 " fill="#FFFFFF" style="stroke:#000000;stroke-width:1;"/><text fill="#000000" font-family="Verdana" font-size="13" lengthAdjust="spacing" textLength="117.73" x="521.2693" y="563.7837">Single binary with</text><text fill="#000000" font-family="Verdana" font-size="13" lengthAdjust="spacing" textLength="132.1074" x="521.2693" y="579.583">embedded database</text></g><!--entity Rust Binary--><g id="elem_Rust Binary"><rect fill="#FFFFFF" height="47.0146" rx="2.5" ry="2.5" style="stroke:#000000;stroke-width:1;" width="121.293" x="387.1693" y="346.9739"/><rect fill="#FFFFFF" height="10" style="stroke:#000000;stroke-width:1;" width="15" x="488.4623" y="351.9739"/><rect fill="#FFFFFF" height="2" style="stroke:#000000;stroke-width:1;" width="4" x="486.4623" y="353.9739"/><rect fill="#FFFFFF" height="2" style="stroke:#000000;stroke-width:1;" width="4" x="486.4623" y="357.9739"/><text fill="#000000" font-family="Verdana" font-size="14" lengthAdjust="spacing" textLength="81.293" x="402.1693" y="381.0491">Rust Binary</text></g><!--entity dev_db--><g id="elem_dev_db"><path d="M543.7793,348.9739 C543.7793,338.9739 576.8198,338.9739 576.8198,338.9739 C576.8198,338.9739 609.8604,338.9739 609.8604,348.9739 L609.8604,392.0032 C609.8604,402.0032 576.8198,402.0032 576.8198,402.0032 C576.8198,402.0032 543.7793,402.0032 543.7793,392.0032 L543.7793,348.9739 " fill="#FFFFFF" style="stroke:#000000;stroke-width:1;"/><path d="M543.7793,348.9739 C543.7793,358.9739 576.8198,358.9739 576.8198,358.9739 C576.8198,358.9739 609.8604,358.9739 609.8604,348.9739 " fill="none" style="stroke:#000000;stroke-width:1;"/><text fill="#000000" font-family="Verdana" font-size="14" lengthAdjust="spacing" textLength="46.0811" x="553.7793" y="377.0491">SQLite</text><text fill="#000000" font-family="Verdana" font-size="14" lengthAdjust="spacing" textLength="33.6602" x="553.7793" y="394.0637">(file)</text></g><!--entity spec-server--><g id="elem_spec-server"><rect fill="#FFFFFF" height="47.0146" rx="2.5" ry="2.5" style="stroke:#000000;stroke-width:1;" width="122.2158" x="788.7093" y="543.0039"/><rect fill="#FFFFFF" height="10" style="stroke:#000000;stroke-width:1;" width="15" x="890.9251" y="548.0039"/><rect fill="#FFFFFF" height="2" style="stroke:#000000;stroke-width:1;" width="4" x="888.9251" y="550.0039"/><rect fill="#FFFFFF" height="2" style="stroke:#000000;stroke-width:1;" width="4" x="888.9251" y="554.0039"/><text fill="#000000" font-family="Verdana" font-size="14" lengthAdjust="spacing" textLength="82.2158" x="803.7093" y="577.0791">spec-server</text></g><!--entity prod_db1--><g id="elem_prod_db1"><path d="M945.7393,545.0039 C945.7393,535.0039 987.8169,535.0039 987.8169,535.0039 C987.8169,535.0039 1029.8946,535.0039 1029.8946,545.0039 L1029.8946,588.0332 C1029.8946,598.0332 987.8169,598.0332 987.8169,598.0332 C987.8169,598.0332 945.7393,598.0332 945.7393,588.0332 L945.7393,545.0039 " fill="#FFFFFF" style="stroke:#000000;stroke-width:1;"/><path d="M945.7393,545.0039 C945.7393,555.0039 987.8169,555.0039 987.8169,555.0039 C987.8169,555.0039 1029.8946,555.0039 1029.8946,545.0039 " fill="none" style="stroke:#000000;stroke-width:1;"/><text fill="#000000" font-family="Verdana" font-size="14" lengthAdjust="spacing" textLength="46.0811" x="955.7393" y="573.0791">SQLite</text><text fill="#000000" font-family="Verdana" font-size="14" lengthAdjust="spacing" textLength="64.1553" x="955.7393" y="590.0937">(volume)</text></g><!--entity nginx/traefik--><g id="elem_nginx/traefik"><rect fill="#FFFFFF" height="47.0146" rx="2.5" ry="2.5" style="stroke:#000000;stroke-width:1;" width="130.2139" x="818.7093" y="346.9739"/><rect fill="#FFFFFF" height="10" style="stroke:#000000;stroke-width:1;" width="15" x="928.9232" y="351.9739"/><rect fill="#FFFFFF" height="2" style="stroke:#000000;stroke-width:1;" width="4" x="926.9232" y="353.9739"/><rect fill="#FFFFFF" height="2" style="stroke:#000000;stroke-width:1;" width="4" x="926.9232" y="357.9739"/><text fill="#000000" font-family="Verdana" font-size="14" lengthAdjust="spacing" textLength="90.2139" x="833.7093" y="381.0491">nginx/traefik</text></g><!--entity lb--><g id="elem_lb"><rect fill="#FFFFFF" height="47.0146" rx="2.5" ry="2.5" style="stroke:#000000;stroke-width:1;" width="139.0664" x="1379.2893" y="346.9739"/><rect fill="#FFFFFF" height="10" style="stroke:#000000;stroke-width:1;" width="15" x="1498.3557" y="351.9739"/><rect fill="#FFFFFF" height="2" style="stroke:#000000;stroke-width:1;" width="4" x="1496.3557" y="353.9739"/><rect fill="#FFFFFF" height="2" style="stroke:#000000;stroke-width:1;" width="4" x="1496.3557" y="357.9739"/><text fill="#000000" font-family="Verdana" font-size="14" lengthAdjust="spacing" textLength="99.0664" x="1394.2893" y="381.0491">Load Balancer</text></g><!--entity server1--><g id="elem_server1"><rect fill="#FFFFFF" height="47.0146" rx="2.5" ry="2.5" style="stroke:#000000;stroke-width:1;" width="137.4736" x="1294.0793" y="543.0039"/><rect fill="#FFFFFF" height="10" style="stroke:#000000;stroke-width:1;" width="15" x="1411.5529" y="548.0039"/><rect fill="#FFFFFF" height="2" style="stroke:#000000;stroke-width:1;" width="4" x="1409.5529" y="550.0039"/><rect fill="#FFFFFF" height="2" style="stroke:#000000;stroke-width:1;" width="4" x="1409.5529" y="554.0039"/><text fill="#000000" font-family="Verdana" font-size="14" lengthAdjust="spacing" textLength="97.4736" x="1309.0793" y="577.0791">spec-server-1</text></g><!--entity server2--><g id="elem_server2"><rect fill="#FFFFFF" height="47.0146" rx="2.5" ry="2.5" style="stroke:#000000;stroke-width:1;" width="137.4736" x="1466.0793" y="543.0039"/><rect fill="#FFFFFF" height="10" style="stroke:#000000;stroke-width:1;" width="15" x="1583.5529" y="548.0039"/><rect fill="#FFFFFF" height="2" style="stroke:#000000;stroke-width:1;" width="4" x="1581.5529" y="550.0039"/><rect fill="#FFFFFF" height="2" style="stroke:#000000;stroke-width:1;" width="4" x="1581.5529" y="554.0039"/><text fill="#000000" font-family="Verdana" font-size="14" lengthAdjust="spacing" textLength="97.4736" x="1481.0793" y="577.0791">spec-server-2</text></g><!--entity servern--><g id="elem_servern"><rect fill="#FFFFFF" height="47.0146" rx="2.5" ry="2.5" style="stroke:#000000;stroke-width:1;" width="137.4326" x="1638.0993" y="543.0039"/><rect fill="#FFFFFF" height="10" style="stroke:#000000;stroke-width:1;" width="15" x="1755.5319" y="548.0039"/><rect fill="#FFFFFF" height="2" style="stroke:#000000;stroke-width:1;" width="4" x="1753.5319" y="550.0039"/><rect fill="#FFFFFF" height="2" style="stroke:#000000;stroke-width:1;" width="4" x="1753.5319" y="554.0039"/><text fill="#000000" font-family="Verdana" font-size="14" lengthAdjust="spacing" textLength="97.4326" x="1653.0993" y="577.0791">spec-server-n</text></g><!--entity events table--><g id="elem_events table"><rect fill="#FFFFFF" height="47.0146" rx="2.5" ry="2.5" style="stroke:#000000;stroke-width:1;" width="126.3857" x="1200.6293" y="771.0339"/><rect fill="#FFFFFF" height="10" style="stroke:#000000;stroke-width:1;" width="15" x="1307.0151" y="776.0339"/><rect fill="#FFFFFF" height="2" style="stroke:#000000;stroke-width:1;" width="4" x="1305.0151" y="778.0339"/><rect fill="#FFFFFF" height="2" style="stroke:#000000;stroke-width:1;" width="4" x="1305.0151" y="782.0339"/><text fill="#000000" font-family="Verdana" font-size="14" lengthAdjust="spacing" textLength="86.3857" x="1215.6293" y="805.1091">events table</text></g><!--entity projections--><g id="elem_projections"><rect fill="#FFFFFF" height="47.0146" rx="2.5" ry="2.5" style="stroke:#000000;stroke-width:1;" width="117.6563" x="1361.9893" y="771.0339"/><rect fill="#FFFFFF" height="10" style="stroke:#000000;stroke-width:1;" width="15" x="1459.6456" y="776.0339"/><rect fill="#FFFFFF" height="2" style="stroke:#000000;stroke-width:1;" width="4" x="1457.6456" y="778.0339"/><rect fill="#FFFFFF" height="2" style="stroke:#000000;stroke-width:1;" width="4" x="1457.6456" y="782.0339"/><text fill="#000000" font-family="Verdana" font-size="14" lengthAdjust="spacing" textLength="77.6563" x="1376.9893" y="805.1091">projections</text></g><!--entity Query Cache--><g id="elem_Query Cache"><rect fill="#FFFFFF" height="47.0146" rx="2.5" ry="2.5" style="stroke:#000000;stroke-width:1;" width="130.0771" x="1586.7793" y="771.0339"/><rect fill="#FFFFFF" height="10" style="stroke:#000000;stroke-width:1;" width="15" x="1696.8565" y="776.0339"/><rect fill="#FFFFFF" height="2" style="stroke:#000000;stroke-width:1;" width="4" x="1694.8565" y="778.0339"/><rect fill="#FFFFFF" height="2" style="stroke:#000000;stroke-width:1;" width="4" x="1694.8565" y="782.0339"/><text fill="#000000" font-family="Verdana" font-size="14" lengthAdjust="spacing" textLength="90.0771" x="1601.7793" y="805.1091">Query Cache</text></g><!--entity Web UI--><g id="elem_Web UI"><rect fill="#FFFFFF" height="47.0146" rx="2.5" ry="2.5" style="stroke:#000000;stroke-width:1;" width="91.9668" x="47.8393" y="111.9539"/><rect fill="#FFFFFF" height="10" style="stroke:#000000;stroke-width:1;" width="15" x="119.8061" y="116.9539"/><rect fill="#FFFFFF" height="2" style="stroke:#000000;stroke-width:1;" width="4" x="117.8061" y="118.9539"/><rect fill="#FFFFFF" height="2" style="stroke:#000000;stroke-width:1;" width="4" x="117.8061" y="122.9539"/><text fill="#000000" font-family="Verdana" font-size="14" lengthAdjust="spacing" textLength="51.9668" x="62.8393" y="146.0291">Web UI</text></g><!--entity TUI--><g id="elem_TUI"><rect fill="#FFFFFF" height="47.0146" rx="2.5" ry="2.5" style="stroke:#000000;stroke-width:1;" width="64.7666" x="174.4393" y="111.9539"/><rect fill="#FFFFFF" height="10" style="stroke:#000000;stroke-width:1;" width="15" x="219.2059" y="116.9539"/><rect fill="#FFFFFF" height="2" style="stroke:#000000;stroke-width:1;" width="4" x="217.2059" y="118.9539"/><rect fill="#FFFFFF" height="2" style="stroke:#000000;stroke-width:1;" width="4" x="217.2059" y="122.9539"/><text fill="#000000" font-family="Verdana" font-size="14" lengthAdjust="spacing" textLength="24.7666" x="189.4393" y="146.0291">TUI</text></g><!--entity Other Services--><g id="elem_Other Services"><rect fill="#FFFFFF" height="47.0146" rx="2.5" ry="2.5" style="stroke:#000000;stroke-width:1;" width="143.5713" x="48.0293" y="346.9739"/><rect fill="#FFFFFF" height="10" style="stroke:#000000;stroke-width:1;" width="15" x="171.6006" y="351.9739"/><rect fill="#FFFFFF" height="2" style="stroke:#000000;stroke-width:1;" width="4" x="169.6006" y="353.9739"/><rect fill="#FFFFFF" height="2" style="stroke:#000000;stroke-width:1;" width="4" x="169.6006" y="357.9739"/><text fill="#000000" font-family="Verdana" font-size="14" lengthAdjust="spacing" textLength="103.5713" x="63.0293" y="381.0491">Other Services</text></g><g id="elem_GMN42"><path d="M1835.1693,325.9839 L1835.1693,414.9805 L2012.4676,414.9805 L2012.4676,335.9839 L2002.4676,325.9839 L1835.1693,325.9839 " fill="#FFFFFF" style="stroke:#000000;stroke-width:1;"/><path d="M2002.4676,325.9839 L2002.4676,335.9839 L2012.4676,335.9839 L2002.4676,325.9839 " fill="#FFFFFF" style="stroke:#000000;stroke-width:1;"/><text fill="#000000" font-family="Verdana" font-size="13" lengthAdjust="spacing" textLength="131.4536" x="1841.1693" y="344.0537">Future scaling path:</text><text fill="#000000" font-family="Verdana" font-size="13" lengthAdjust="spacing" textLength="156.2983" x="1841.1693" y="359.853">- PostgreSQL for events</text><text fill="#000000" font-family="Verdana" font-size="13" lengthAdjust="spacing" textLength="122.3193" x="1841.1693" y="375.6524">- Redis for caching</text><text fill="#000000" font-family="Verdana" font-size="13" lengthAdjust="spacing" textLength="126.9087" x="1841.1693" y="391.4517">- Multiple instances</text><text fill="#000000" font-family="Verdana" font-size="13" lengthAdjust="spacing" textLength="131.9106" x="1841.1693" y="407.251">- Still event sourced</text></g><!--link dev_server to GMN6--><g id="link_dev_server_GMN6"><path d="M630.0829,426.2919 C630.0495,426.4154 630.0161,426.5389 629.9826,426.6624 C629.9158,426.9094 629.849,427.1564 629.7821,427.4033 C629.5147,428.3911 629.2474,429.3781 628.9805,430.3631 C627.9129,434.3033 626.8518,438.2114 625.8193,442.0039 C615.8793,478.4839 604.1493,520.9739 597.3893,545.4139 " fill="none" id="dev_server-GMN6" style="stroke:#000000;stroke-width:1;stroke-dasharray:7.0,7.0;"/></g><!--link proxy1 to container1--><g id="link_proxy1_container1"><path d="M992.0021,382.3362 C996.4406,388.3961 1002.3206,396.6808 1008.7143,406.3777 C1021.5018,425.7714 1036.3443,450.8139 1045.8193,475.0039 C1047.6343,479.6377 1049.2884,484.4764 1050.7939,489.4026 C1050.888,489.7104 1050.9815,490.0187 1051.0744,490.3272 C1051.1209,490.4815 1049.4481,484.8874 1049.4943,485.0418 " fill="none" id="proxy1-to-container1" style="stroke:#000000;stroke-width:1;"/><polygon fill="#000000" points="1051.2134,490.7902,1052.4671,481.0215,1049.7808,485.9999,1044.8025,483.3136,1051.2134,490.7902" style="stroke:#000000;stroke-width:1;"/><text fill="#000000" font-family="Verdana" font-size="13" lengthAdjust="spacing" textLength="73.5884" x="1043.0693" y="464.0737">HTTP/gRPC</text></g><!--link lb to server1--><g id="link_lb_server1"><path d="M1438.7893,394.1239 C1422.2593,431.4139 1391.9203,499.8484 1375.3503,537.2384 " fill="none" id="lb-to-server1" style="stroke:#000000;stroke-width:1;"/><polygon fill="#000000" points="1372.9193,542.7239,1380.2228,536.1164,1374.9451,538.1527,1372.9088,532.875,1372.9193,542.7239" style="stroke:#000000;stroke-width:1;"/></g><!--link lb to server2--><g id="link_lb_server2"><path d="M1458.8493,394.1239 C1475.3793,431.4139 1505.7183,499.8484 1522.2883,537.2384 " fill="none" id="lb-to-server2" style="stroke:#000000;stroke-width:1;"/><polygon fill="#000000" points="1524.7193,542.7239,1524.7298,532.875,1522.6935,538.1527,1517.4159,536.1164,1524.7193,542.7239" style="stroke:#000000;stroke-width:1;"/></g><!--link lb to servern--><g id="link_lb_servern"><path d="M1467.8293,394.2239 C1481.6993,409.5639 1501.6993,429.2539 1522.8193,442.0039 C1562.1693,465.7539 1582.0793,450.2839 1620.8193,475.0039 C1649.1393,493.0739 1671.0281,517.6981 1686.7781,538.0581 " fill="none" id="lb-to-servern" style="stroke:#000000;stroke-width:1;"/><polygon fill="#000000" points="1690.4493,542.8039,1688.1063,533.2378,1687.39,538.8491,1681.7787,538.1327,1690.4493,542.8039" style="stroke:#000000;stroke-width:1;"/></g><!--link server1 to pg--><g id="link_server1_pg"><path d="M1378.4693,590.2939 C1394.0893,611.4939 1419.8693,642.6539 1448.8193,662.0339 C1467.2793,674.3839 1481.6093,661.9539 1495.8193,679.0339 C1497.8493,681.4733 1499.7015,684.0459 1501.39,686.7261 C1502.2342,688.0662 1503.0375,689.4333 1503.8017,690.824 C1504.1838,691.5193 1504.5561,692.2206 1504.9189,692.9274 C1505.1003,693.2808 1505.2793,693.6356 1505.4559,693.9917 C1505.5442,694.1698 1503.0025,688.955 1503.0896,689.1337 " fill="none" id="server1-to-pg" style="stroke:#000000;stroke-width:1;"/><polygon fill="#000000" points="1505.719,694.5269,1505.3704,684.6842,1503.5279,690.0326,1498.1795,688.1901,1505.719,694.5269" style="stroke:#000000;stroke-width:1;"/></g><!--link server2 to pg--><g id="link_server2_pg"><path d="M1532.7893,590.4339 C1531.5393,604.5739 1529.8162,624.0545 1527.9285,645.3909 C1526.9847,656.0591 1525.9997,667.1913 1525.0122,678.3518 C1524.5185,683.932 1524.0241,689.5193 1523.5338,695.0593 C1523.4113,696.4443 1523.289,697.8263 1523.167,699.2045 C1523.1061,699.8937 1523.0452,700.5818 1522.9844,701.2689 C1522.954,701.6125 1523.4525,695.9791 1523.4221,696.3221 " fill="none" id="server2-to-pg" style="stroke:#000000;stroke-width:1;"/><polygon fill="#000000" points="1522.8932,702.2988,1527.671,693.6864,1523.334,697.3182,1519.7021,692.9812,1522.8932,702.2988" style="stroke:#000000;stroke-width:1;"/></g><!--link servern to pg--><g id="link_servern_pg"><path d="M1691.2493,590.4239 C1675.6993,611.7139 1649.9493,642.9339 1620.8193,662.0339 C1601.1893,674.8939 1588.4393,663.5239 1570.8193,679.0339 C1549.8893,697.4539 1535.9968,725.4789 1527.2843,749.1927 C1526.1952,752.1569 1525.1871,755.0537 1524.2563,757.856 C1523.7909,759.2572 1525.1544,754.9141 1524.7272,756.2646 " fill="none" id="servern-to-pg" style="stroke:#000000;stroke-width:1;"/><polygon fill="#000000" points="1522.9176,761.9852,1529.4458,754.6107,1524.4256,757.218,1521.8183,752.1979,1522.9176,761.9852" style="stroke:#000000;stroke-width:1;"/></g><!--link server1 to cache--><g id="link_server1_cache"><path d="M1375.9793,590.1139 C1390.5693,612.7939 1416.3993,646.5239 1448.8193,662.0339 C1463.0793,668.8539 1721.0693,668.4539 1732.8193,679.0339 C1742.2543,687.5289 1748.1962,698.777 1751.7927,710.9087 C1752.6919,713.9417 1753.4444,717.0298 1754.0684,720.144 C1754.3803,721.7011 1754.6601,723.2647 1754.91,724.8311 C1754.9724,725.2227 1755.033,725.6145 1755.0918,726.0064 C1755.1212,726.2024 1754.2877,720.4607 1754.3162,720.6567 " fill="none" id="server1-to-cache" style="stroke:#000000;stroke-width:1;"/><polygon fill="#000000" points="1755.1786,726.5944,1757.8434,717.1129,1754.4599,721.6463,1749.9265,718.2627,1755.1786,726.5944" style="stroke:#000000;stroke-width:1;"/></g><!--link server2 to cache--><g id="link_server2_cache"><path d="M1548.8293,590.3539 C1563.7593,612.5439 1589.5293,645.2739 1620.8193,662.0339 C1643.0093,673.9139 1714.8993,661.3539 1732.8193,679.0339 C1741.8593,687.9489 1747.6006,699.4108 1751.1192,711.6261 C1751.9988,714.6799 1752.7395,717.7808 1753.3582,720.9008 C1753.6675,722.4608 1753.9463,724.0256 1754.1966,725.5916 C1754.2592,725.9831 1753.4251,720.4418 1753.4842,720.8334 " fill="none" id="server2-to-cache" style="stroke:#000000;stroke-width:1;"/><polygon fill="#000000" points="1754.3791,726.7663,1756.992,717.2704,1753.6333,721.8222,1749.0815,718.4636,1754.3791,726.7663" style="stroke:#000000;stroke-width:1;"/></g><!--link servern to cache--><g id="link_servern_cache"><path d="M1712.6293,590.4839 C1718.2193,612.9639 1726.6793,648.2239 1732.8193,679.0339 C1735.3018,691.4839 1737.7131,704.7408 1739.9377,717.6534 C1740.2158,719.2675 1740.491,720.8762 1740.763,722.4773 C1740.899,723.2778 1741.0343,724.0765 1741.1687,724.8729 C1741.2359,725.2711 1741.3029,725.6688 1741.3697,726.0659 C1741.4031,726.2644 1740.4427,720.5457 1740.476,720.744 " fill="none" id="servern-to-cache" style="stroke:#000000;stroke-width:1;"/><polygon fill="#000000" points="1741.4697,726.6611,1743.9239,717.1229,1740.6416,721.7302,1736.0344,718.4479,1741.4697,726.6611" style="stroke:#000000;stroke-width:1;"/></g><!--link clients to dev--><g id="link_clients_dev"><path d="M283.4234,136.9345 C283.6455,136.9475 283.8717,136.9608 284.1018,136.9743 C285.9429,137.0826 288.0387,137.209 290.3717,137.3544 C299.7035,137.936 312.8306,138.8215 328.6349,140.0684 C360.2437,142.5623 402.5618,146.502 446.6468,152.3477 C534.8168,164.0389 630.0543,183.3539 660.8193,213.9739 C663.8962,217.0364 666.7156,220.3107 669.2976,223.7591 C670.5886,225.4834 671.8202,227.2511 672.995,229.0577 C673.1418,229.2835 670.057,224.4541 670.2021,224.6811 " fill="none" id="clients-to-dev" style="stroke:#000000;stroke-width:1;"/><polygon fill="#000000" points="673.4329,229.737,671.9572,219.9993,670.7405,225.5238,665.2161,224.3071,673.4329,229.737" style="stroke:#000000;stroke-width:1;"/><text fill="#000000" font-family="Verdana" font-size="13" lengthAdjust="spacing" textLength="86.4932" x="647.9593" y="203.0437">Development</text></g><!--link clients to proxy1--><g id="link_clients_proxy1"><path d="M283.6996,136.8019 C288.8325,137.0053 296.0817,137.3001 305.1572,137.6883 C323.3083,138.4645 348.7647,139.6138 379.2076,141.1512 C440.0934,144.2261 520.9249,148.8533 603.1506,155.1527 C767.6018,167.7514 937.6293,187.0389 964.8193,213.9739 C989.1693,238.0939 994.1518,276.1439 992.9331,308.5677 C992.7807,312.6206 992.5315,316.5857 992.2111,320.4246 C992.131,321.3844 992.0464,322.3362 991.9578,323.2796 C991.9135,323.7513 992.4593,318.2501 992.4131,318.7174 " fill="none" id="clients-to-proxy1" style="stroke:#000000;stroke-width:1;"/><polygon fill="#000000" points="991.8219,324.6882,996.6892,316.1261,992.3145,319.7126,988.7281,315.3379,991.8219,324.6882" style="stroke:#000000;stroke-width:1;"/><text fill="#000000" font-family="Verdana" font-size="13" lengthAdjust="spacing" textLength="122.8906" x="949.9493" y="203.0437">Production (Initial)</text></g><!--link clients to lb--><g id="link_clients_lb"><path d="M283.7043,136.566 C288.8521,136.6306 296.1392,136.7282 305.3054,136.8671 C323.6378,137.1448 349.4863,137.5873 380.7684,138.2589 C443.3324,139.602 527.6306,141.8614 617.0018,145.5514 C795.7443,152.9314 994.7793,166.0339 1080.8193,188.9739 C1211.4593,223.8039 1345.8286,303.1406 1409.0386,343.4006 " fill="none" id="clients-to-lb" style="stroke:#000000;stroke-width:1;"/><polygon fill="#000000" points="1414.0993,346.6239,1408.6571,338.4152,1409.8821,343.9378,1404.3594,345.1628,1414.0993,346.6239" style="stroke:#000000;stroke-width:1;"/><text fill="#000000" font-family="Verdana" font-size="13" lengthAdjust="spacing" textLength="128.4385" x="1134.8993" y="203.0437">Production (Scaled)</text></g><!--link prod2 to GMN42--><g id="link_prod2_GMN42"><path d="M1807.8987,370.4839 C1808.2606,370.4839 1808.6224,370.4839 1808.9843,370.4839 C1811.8793,370.4839 1814.7743,370.4839 1817.6693,370.4839 C1823.4593,370.4839 1829.2493,370.4839 1835.0393,370.4839 " fill="none" id="prod2-GMN42" style="stroke:#000000;stroke-width:1;stroke-dasharray:7.0,7.0;"/></g><!--SRC=[ZLHDZzem4BtdLqmvjOTe1KSEFInirPMsAajeUw2eSk8XkElOaUraGTN-zqxiV94AgH88ylncFE_DPDwv4nO8fMH2HP4JJY8a9MQGeAb5XX336akfBmKg1zy5laQHqXnXjiOQfIuz_g1gORHg_i-0MU1Omvy88DD5gLN3c5bA6bjAYgQZ_0gFdWcmtrRMmRrGp5mE7k7CiPHPkYjvVX8EVwhtHo7nGn_FK-AzqPS-IZk4L3kd2z37KNgVAX4g9sMfpmwlmfqyZ4MAd2Flho8K5VV9ehTEwSPeNcLEQ3KMIjKyAk44aw6WabZpgUgrpbv8uKehHmQtqhFkQTv97vbpKtgjPLNWS1Ufdm_oHtTkgJ66GgdiywMZdo_zPIeNwdpd3CEZU3aCALfM77ySLRY4pxlTvYxVRbR_OKYICObyg74nzUD9CmxtJ3ALjMR8z1y18pVYkIU5X_bjsc94MzocgH5DXNi7fpVQkjmW6KvA7kecE77QT9RddN_O75cWC8cXMtlI-Xkz8VPmeoTSsD1ybfsmI_LS8OtZge56SJBrJHX4Nm6BAT0AQUd-eCnxO345r01Cednfay1hJ8qmcePCweh3R2L5uqYG5_vxWViVcCAtnqRPVjV-VgLzOxhbGcRvB26aIKslxH96c-NgC0pe4aRZrx-2LqIPNfFQiMp6bvQ44Vd9DJl2JoWLzQbobK6mnA8r0ILpfoN1CGmJ0KTj83JUd_X-Uh0nWw8y-gMIJfIqPuIohXdnG4wSa394WzMLoP17_PRv2m00]--></g></svg>